# xmcd CD database file
#
# Track frame offsets:
#	150
#	3262
#	22417
#	38727
#	42405
#	71035
#	96947
#	100497
#	123222
#	141632
#	145627
#	163860
#	193252
#
# Disc length: 2616 seconds
#
# Revision: 3
# Processed by: cddbd v1.5.2PL0 Copyright (c) Steve Scherf et al.
# Submitted via: CDex 1.51
#
DISCID=c20a360d
DTITLE=Terry Callier - Occasional Rain
DYEAR=1972
DGENRE=Soul
TTITLE0=Segue #1 - Go Ahead On
TTITLE1=Ordinary Joe
TTITLE2=Golden Circle
TTITLE3=Segue #5 - Go Head On
TTITLE4=Trance On Sedgewick Street
TTITLE5=Do You Finally Need A Friend
TTITLE6=Segue #4 - Go Head On
TTITLE7=Sweet Edie - D
TTITLE8=Occasional Rain
TTITLE9=Segue #2 - Go Head On
TTITLE10=Blues For Marcus
TTITLE11=Lean On Me
TTITLE12=Last Segue - Go Head On
EXTD=YEAR: 1972
EXTT0=
EXTT1=
EXTT2=
EXTT3=
EXTT4=
EXTT5=
EXTT6=
EXTT7=
EXTT8=
EXTT9=
EXTT10=
EXTT11=
EXTT12=
PLAYORDER=
